# xmcd CD database file
#
# Track frame offsets:
#	150
#	15650
#	31310
#	42095
#	63612
#	88442
#	101770
#	124652
#	136930
#	150932
#	164365
#	177710
#	190247
#	201782
#	214355
#	229645
#	243492
#	259665
#	274190
#	287945
#
# Disc length: 4029 seconds
#
# Revision: 0
# Processed by: cddbd v1.5PL3 Copyright (c) Steve Scherf et al.
# Submitted via: CDex 1.50
#
DISCID=290fbb14
DTITLE=Compilation - Mega Salsa CD3
DYEAR=2003
DGENRE=Salsa
TTITLE0=Puntillita/El son de Puntillita
TTITLE1=Caridad Hierrezuelo/Matia siguraya
TTITLE2=Tito Gomez/Despecho
TTITLE3=Los Karachi/Y eso a que viene papa
TTITLE4=Grupo Clave/Palenque
TTITLE5=Los Van Van/Pero Qqu falta de respeto
TTITLE6=Candido Fabre/Eso pa'ti es boberian sarria
TTITLE7=Benny Moré/El agarrao
TTITLE8=Bobby Cappo/El monsieur se puso bravo
TTITLE9=Machito and his afro cuban boys
TTITLE10=Celia Cruz/Elegua Quiere tambo
TTITLE11=Xavier Cugat and his orchestra/Rosita la bonita
TTITLE12=Edmundo Ros and his Rumba Band/Dengozo
TTITLE13=Arsenio Rodriguez and Chano Pozo and Machito with his Afro Cuban boys/Paso en Tampa
TTITLE14=Cuarteto Machin/Vacilando
TTITLE15=Compay Segundo/Llora mi nena
TTITLE16=Omara Portuondo/Guajira guantanamera
TTITLE17=Benny Moré/Anabacoa
TTITLE18=Bimbi y su Tiro Oriental/Matrimonios en pleito
TTITLE19=Conjunto Casino/Oye aqui esta
EXTD=YEAR: 2003
EXTT0=
EXTT1=
EXTT2=
EXTT3=
EXTT4=
EXTT5=
EXTT6=
EXTT7=
EXTT8=
EXTT9=
EXTT10=
EXTT11=
EXTT12=
EXTT13=
EXTT14=
EXTT15=
EXTT16=
EXTT17=
EXTT18=
EXTT19=
PLAYORDER=
